# xmcd
#
# Track frame offsets:
#	150
#	14962
#	32468
#	54119
#	80562
#	98961
#	115192
#	129714
#	146344
#	166294
#	181823
#	204651
#	225792
#	240042
#	258526
#
# Disc length: 3672 seconds
#
# Revision: 0
# Processed by: cddbd v1.5.2PL0 Copyright (c) Steve Scherf et al.
# Submitted via: audiograbber 1.83.01
#
DISCID=b90e560f
DTITLE=the little BIG easy - Go to the Mardi Gras
DYEAR=2013
DGENRE=Blues
TTITLE0=Medley: Down by the Riverside - My Indian Red
TTITLE1=Swanee River Boogie Woogie
TTITLE2=Go to the Mardi Gras
TTITLE3=Tipitina
TTITLE4=Jambalaya
TTITLE5=I ate up the Apple Tree
TTITLE6=Crawfishin'
TTITLE7=St. Gabriel
TTITLE8=Lay my Burden down
TTITLE9=Something I can't do
TTITLE10=After you've gone
TTITLE11=Careless Love
TTITLE12=Mama's Cooking
TTITLE13=Hey Little Girl
TTITLE14=Fingernails
EXTD=
EXTT0=
EXTT1=
EXTT2=
EXTT3=
EXTT4=
EXTT5=
EXTT6=
EXTT7=
EXTT8=
EXTT9=
EXTT10=
EXTT11=
EXTT12=
EXTT13=
EXTT14=
PLAYORDER=
